<svg xmlns="http://www.w3.org/2000/svg" width="375" height="338" fill="none" viewBox="0 0 375 338">
  <path fill="#060E40" d="M256.945 337.751c52.382 2.087 130.122-32.989 130.122-32.989s38.744-58.731 52.083-101.09c18.26-57.985 35.249-99.554 10.956-155.28-26.117-59.912-72.014-80.217-134.385-99.745-39.532-12.377-105.612-9.898-105.612-9.898l-372.096 300.047s67.374 86.931 129.362 93.517c58.473 6.211 80.917-55.495 139.716-56.14 63.266-.693 86.634 59.058 149.854 61.578z"/>
  <path fill="#030E4A" fill-opacity=".8" d="M256.945 337.751c52.382 2.087 130.122-32.989 130.122-32.989s38.744-58.731 52.083-101.09c18.26-57.985 35.249-99.554 10.956-155.28-26.117-59.912-72.014-80.217-134.385-99.745-39.532-12.377-105.612-9.898-105.612-9.898l-372.096 300.047s67.374 86.931 129.362 93.517c58.473 6.211 80.917-55.495 139.716-56.14 63.266-.693 86.634 59.058 149.854 61.578z"/>
</svg>
