<svg xmlns="http://www.w3.org/2000/svg" width="40" height="32" fill="none" viewBox="0 0 40 32">
  <path fill="currentColor" d="M38.514 18.06h-5.46v-5.128h5.46c.82 0 1.486-.65 1.486-1.452 0-.802-.665-1.451-1.486-1.451h-5.46V2.913c0-1.039-.21-1.801-.624-2.266C32.037.206 31.52 0 30.803 0c-.684 0-1.182.204-1.568.643-.409.465-.617 1.229-.617 2.27v7.116h-10.27L13.98 3.571c-.374-.576-.725-1.116-1.066-1.634a7.288 7.288 0 00-.89-1.13 2.85 2.85 0 00-.87-.595C10.837.07 10.438 0 9.963 0c-.605 0-1.154.162-1.68.495-.52.329-.879.735-1.098 1.243-.193.483-.295 1.222-.295 2.177v6.114H1.485c-.82 0-1.485.65-1.485 1.452 0 .802.665 1.45 1.485 1.45h5.406v5.13H1.485c-.82 0-1.485.65-1.485 1.451 0 .802.665 1.451 1.485 1.451h5.406v8.124c0 1.008.217 1.763.646 2.242.408.458.926.67 1.629.67.678 0 1.192-.213 1.618-.671.436-.47.656-1.224.656-2.24v-8.125h9.295l5.029 7.537c.35.498.71 1 1.07 1.494.326.443.68.833 1.054 1.159.337.294.698.51 1.074.642.386.136.838.205 1.339.205 1.36 0 2.753-.407 2.753-3.425v-7.612h5.46c.82 0 1.486-.65 1.486-1.452 0-.801-.665-1.451-1.486-1.451zm-9.896-5.129v5.129h-4.84l-3.467-5.129h8.307zM11.44 7.04l1.996 2.99H11.44v-2.99zm0 11.02v-5.128h3.934l3.423 5.129H11.44zm17.178 7.159l-2.876-4.255h2.876v4.255z"/>
</svg>
