<svg xmlns="http://www.w3.org/2000/svg" width="16" height="16" fill="none" viewBox="0 0 16 16">
  <rect width="16" height="16" fill="#fff" rx="8"/>
  <path fill="#1DC7AC" d="M8.581 8.35v1.256a3.124 3.124 0 00-1.576-.172c-.53.08-1.036.295-1.474.628a3.542 3.542 0 00-1.04 1.287 3.833 3.833 0 00-.375 1.658H3c0-.734.156-1.459.456-2.118.3-.659.736-1.235 1.274-1.685a4.326 4.326 0 011.834-.908 4.155 4.155 0 012.017.053v.001zm-1.116-.753c-1.85 0-3.349-1.613-3.349-3.606 0-1.993 1.499-3.606 3.35-3.606 1.85 0 3.348 1.613 3.348 3.606 0 1.993-1.499 3.606-3.349 3.606zm0-1.202c1.234 0 2.233-1.076 2.233-2.404 0-1.328-1-2.404-2.233-2.404S5.233 2.663 5.233 3.99c0 1.328.999 2.404 2.232 2.404zm4.465 3.607h1.675v1.202H11.93v2.104l-2.79-2.705 2.79-2.705v2.104z"/>
</svg>
