<svg xmlns="http://www.w3.org/2000/svg" width="16" height="16" fill="none" viewBox="0 0 16 16">
  <rect width="16" height="16" fill="#fff" rx="8"/>
  <path fill="#FAAD39" d="M7.576 8.35v1.256a2.77 2.77 0 00-1.48-.172c-.5.08-.974.295-1.385.628-.41.333-.746.775-.977 1.287a4.04 4.04 0 00-.352 1.658H2.333c0-.734.147-1.459.428-2.118A4.738 4.738 0 013.96 9.204a3.973 3.973 0 011.722-.908 3.675 3.675 0 011.895.054zm-1.048-.752c-1.738 0-3.146-1.614-3.146-3.607C3.382 2 4.79.385 6.528.385S9.674 1.999 9.674 3.99c0 1.993-1.408 3.607-3.146 3.607zm0-1.202c1.159 0 2.097-1.076 2.097-2.405 0-1.328-.938-2.404-2.097-2.404S4.43 2.663 4.43 3.99c0 1.329.938 2.405 2.097 2.405zm5.669 4.104l.024.12.074.38-.098-.5.052.338-.052.162v-.5z"/>
  <path fill="#FAAD39" d="M10.5 11v2l2.5-2.5L10.5 8v2H9v1h1.5z"/>
</svg>
