<svg xmlns="http://www.w3.org/2000/svg" width="214" height="214" fill="none" viewBox="0 0 214 214">
  <path fill="#FFCC72" d="M107 214a107.006 107.006 0 0075.66-31.34A106.983 106.983 0 00214 107a107.004 107.004 0 00-66.053-98.855A107.002 107.002 0 00107 0v214z"/>
  <path fill="#01CC88" d="M107 0a107 107 0 100 214V0z"/>
  <path fill="#FF8A00" d="M34 109.5l72.75-72.313v144.626L34 109.5z"/>
  <path fill="#FB4953" d="M178 109.5l-72 72.313V37.187l72 72.313z"/>
  <path fill="#FFC2C2" d="M125.143 100.143h-1.715v-1.714C123.428 89.908 116.521 83 108 83s-15.429 6.908-15.429 15.429v1.714h-1.714c-.947 0-1.714.767-1.714 1.714v27.429c0 .946.767 1.714 1.714 1.714h34.286c.947 0 1.714-.768 1.714-1.714v-27.429c0-.947-.767-1.714-1.714-1.714zm-12.294 15.407a5.143 5.143 0 01-3.135 3.135v3.744a1.714 1.714 0 01-3.428 0v-3.744a5.143 5.143 0 116.563-3.135zM120 100.143H96v-1.714c0-6.628 5.373-12 12-12s12 5.372 12 12v1.714z"/>
</svg>
