<svg xmlns="http://www.w3.org/2000/svg" width="171" height="553" fill="none" viewBox="0 0 171 553">
  <path fill="#FFCC72" d="M0 413h171v140h-51C53.726 553 0 499.274 0 433v-20z"/>
  <circle cx="103" cy="474" r="45" fill="#FFEAC5"/>
  <circle cx="103" cy="474" r="26" fill="#01CC88"/>
  <g>
    <path fill="#FFB129" d="M44 0h127v413H44z"/>
    <path stroke="#FFC35B" d="M147 2s22 17.958 22 40.111-22 17.959-22 40.111c0 22.153 22 17.959 22 40.111 0 22.153-22 17.959-22 40.111 0 22.153 22 17.959 22 40.112 0 22.152-22 17.958-22 40.111 0 22.152 22 17.958 22 40.111s-22 17.958-22 40.111S169 363 169 363"/>
    <path stroke="#FFC35B" d="M136 2s22 17.958 22 40.111-22 17.959-22 40.111c0 22.153 22 17.959 22 40.111 0 22.153-22 17.959-22 40.111 0 22.153 22 17.959 22 40.112 0 22.152-22 17.958-22 40.111 0 22.152 22 17.958 22 40.111s-22 17.958-22 40.111S158 363 158 363"/>
    <path stroke="#FFC35B" d="M125 2s22 17.958 22 40.111-22 17.959-22 40.111c0 22.153 22 17.959 22 40.111 0 22.153-22 17.959-22 40.111 0 22.153 22 17.959 22 40.112 0 22.152-22 17.958-22 40.111 0 22.152 22 17.958 22 40.111s-22 17.958-22 40.111S147 363 147 363"/>
    <path stroke="#FFC35B" d="M116 2s22 17.958 22 40.111-22 17.959-22 40.111c0 22.153 22 17.959 22 40.111 0 22.153-22 17.959-22 40.111 0 22.153 22 17.959 22 40.112 0 22.152-22 17.958-22 40.111 0 22.152 22 17.958 22 40.111s-22 17.958-22 40.111S138 363 138 363"/>
  </g>
</svg>
