<svg xmlns="http://www.w3.org/2000/svg" width="305" height="283" fill="none" viewBox="0 0 305 283">
  <path fill="#FFC2C2" d="M248 246L37.046 0H0v246h248z"/>
  <path fill="#FF2E63" d="M191.757 225.756l56.569-56.569 56.568 56.569-56.568 56.569z"/>
  <circle cx="248" cy="226" r="20" fill="#fff"/>
  <path stroke="#FFB3B3" d="M48.878 35.561s15.353-1.486 22.24 6.754c6.887 8.24-4.188 14.846 2.7 23.085 6.886 8.24 15.353-1.486 22.24 6.754 6.886 8.24-4.188 14.846 2.699 23.086 6.886 8.239 15.353-1.487 22.24 6.753 6.887 8.24-4.188 14.846 2.699 23.086 6.887 8.239 15.353-1.487 22.24 6.753 6.887 8.24-4.187 14.846 2.7 23.086 6.886 8.24 22.24 6.753 22.24 6.753"/>
  <path stroke="#FFB3B3" d="M43.993 39.644s15.353-1.486 22.24 6.754c6.887 8.24-4.188 14.845 2.7 23.085 6.886 8.24 15.352-1.486 22.24 6.754 6.886 8.24-4.188 14.846 2.698 23.085 6.887 8.24 15.354-1.486 22.241 6.754 6.887 8.24-4.188 14.846 2.699 23.085 6.887 8.24 15.353-1.486 22.24 6.754 6.887 8.24-4.187 14.846 2.699 23.086 6.887 8.239 22.241 6.753 22.241 6.753"/>
  <path stroke="#FFB3B3" d="M39.108 43.727s15.353-1.486 22.24 6.754c6.886 8.24-4.188 14.845 2.699 23.085S79.4 72.08 86.287 80.32c6.887 8.24-4.188 14.845 2.7 23.085 6.886 8.24 15.353-1.486 22.239 6.754 6.887 8.239-4.187 14.845 2.7 23.085 6.887 8.24 15.353-1.486 22.24 6.754 6.887 8.24-4.188 14.846 2.699 23.085 6.887 8.24 22.24 6.754 22.24 6.754"/>
  <path stroke="#FFB3B3" d="M35.11 47.068s15.354-1.486 22.24 6.754c6.888 8.24-4.187 14.846 2.7 23.085 6.887 8.24 15.353-1.486 22.24 6.754 6.887 8.24-4.187 14.846 2.7 23.085 6.886 8.24 15.353-1.486 22.24 6.754 6.887 8.24-4.188 14.846 2.699 23.086 6.887 8.239 15.353-1.487 22.24 6.753 6.887 8.24-4.187 14.846 2.699 23.086 6.887 8.239 22.241 6.753 22.241 6.753"/>
</svg>
