<svg xmlns="http://www.w3.org/2000/svg" width="54" height="178" fill="none" viewBox="0 0 54 178">
  <path stroke="#1F2860" d="M18.61 1.6S32.324 8.665 33.65 19.32c1.327 10.657-11.56 10.213-10.233 20.87 1.327 10.656 13.712 7.064 15.04 17.721 1.326 10.657-11.561 10.213-10.234 20.87 1.327 10.656 13.712 7.064 15.04 17.72 1.327 10.657-11.56 10.213-10.234 20.87 1.328 10.656 13.712 7.065 15.04 17.721 1.327 10.657-11.56 10.213-10.233 20.87 1.327 10.656 15.039 17.721 15.039 17.721"/>
  <path stroke="#1F2860" d="M12.293 2.386s13.712 7.065 15.039 17.722-11.56 10.212-10.233 20.87c1.327 10.656 13.712 7.064 15.04 17.72 1.326 10.657-11.561 10.213-10.234 20.87 1.328 10.656 13.712 7.065 15.04 17.721 1.327 10.657-11.56 10.213-10.233 20.87 1.327 10.656 13.711 7.065 15.039 17.721 1.327 10.657-11.56 10.213-10.233 20.869 1.327 10.657 15.039 17.722 15.039 17.722"/>
  <path stroke="#1F2860" d="M5.975 3.173s13.712 7.065 15.04 17.722C22.34 31.55 9.453 31.107 10.78 41.764c1.327 10.656 13.712 7.065 15.04 17.721 1.327 10.657-11.56 10.213-10.234 20.87C16.916 91.01 29.3 87.42 30.627 98.076c1.327 10.657-11.56 10.213-10.233 20.869 1.327 10.657 13.712 7.065 15.039 17.722 1.327 10.656-11.56 10.213-10.233 20.869 1.327 10.657 15.04 17.722 15.04 17.722"/>
  <path stroke="#1F2860" d="M.806 3.817s13.711 7.066 15.039 17.722c1.327 10.657-11.56 10.213-10.233 20.87 1.327 10.656 13.712 7.064 15.039 17.72C21.978 70.787 9.091 70.343 10.418 81c1.327 10.656 13.712 7.065 15.04 17.722 1.327 10.656-11.56 10.212-10.234 20.869 1.328 10.656 13.712 7.065 15.04 17.721 1.327 10.657-11.56 10.213-10.233 20.869 1.327 10.657 15.039 17.722 15.039 17.722"/>
</svg>
