<svg xmlns="http://www.w3.org/2000/svg" width="127" height="413" fill="none" viewBox="0 0 127 413">
  <path fill="#FFB129" d="M0 0h127v413H0z"/>
  <path stroke="#FFC35B" d="M103 2s22 17.958 22 40.111-22 17.959-22 40.111c0 22.153 22 17.959 22 40.111 0 22.153-22 17.959-22 40.111 0 22.153 22 17.959 22 40.112 0 22.152-22 17.958-22 40.111 0 22.152 22 17.958 22 40.111s-22 17.958-22 40.111S125 363 125 363"/>
  <path stroke="#FFC35B" d="M92 2s22 17.958 22 40.111S92 60.07 92 82.222c0 22.153 22 17.959 22 40.111 0 22.153-22 17.959-22 40.111 0 22.153 22 17.959 22 40.112 0 22.152-22 17.958-22 40.111 0 22.152 22 17.958 22 40.111s-22 17.958-22 40.111S114 363 114 363"/>
  <path stroke="#FFC35B" d="M81 2s22 17.958 22 40.111S81 60.07 81 82.222c0 22.153 22 17.959 22 40.111 0 22.153-22 17.959-22 40.111 0 22.153 22 17.959 22 40.112 0 22.152-22 17.958-22 40.111 0 22.152 22 17.958 22 40.111s-22 17.958-22 40.111S103 363 103 363"/>
  <path stroke="#FFC35B" d="M72 2s22 17.958 22 40.111S72 60.07 72 82.222c0 22.153 22 17.959 22 40.111 0 22.153-22 17.959-22 40.111 0 22.153 22 17.959 22 40.112 0 22.152-22 17.958-22 40.111 0 22.152 22 17.958 22 40.111s-22 17.958-22 40.111S94 363 94 363"/>
</svg>
